<svg id="Group_2614" data-name="Group 2614" xmlns="http://www.w3.org/2000/svg" width="13.523" height="12.504" viewBox="0 0 13.523 12.504">
  <path id="details_find_file" d="M471.767,154.964v1.775l-.037.249-.07.212-.071.214-.106.212-.108.2-.159.178-.143.2-.194.159-.178.143-.2.106-.212.106-.2.09-.214.035-.231.035-.247.018h-8.8l-.249-.018-.231-.035-.212-.035-.214-.09-.212-.106-.2-.106-.178-.143-.178-.159-.159-.2-.143-.178-.106-.2-.106-.212-.09-.214-.053-.212-.035-.249v-7.388l.035-.247.053-.214.09-.212.106-.2.106-.212.143-.178.159-.2.178-.159.178-.161.2-.106.212-.106.214-.071.212-.053.231-.035h3.327l.106.016.037.018.035.035.071.09.016.053v.053l-.016.106-.037.053-.07.053-.09.037-.3.124-.284.106-.267.143-.231.124-.088.035H460.6l-.143.018-.125.016-.124.018-.123.053-.09.053-.124.071-.106.071-.09.088-.088.108-.09.106-.07.106-.037.124-.053.106-.018.143-.016.106-.018.143v6.907l.018.143.016.124.018.124.053.124.037.106.07.124.09.088.088.108.09.106.106.071.124.053.09.07.123.037.124.035.125.018h9.086l.106-.018.143-.035.125-.037.088-.07.125-.053.106-.071.09-.106.088-.108.09-.088.053-.124.053-.106.053-.124.018-.124.018-.124.016-.143v-1.224l.037-.07.053-.037.053-.053.106-.071.124-.071.09-.07.124-.09.07-.071.071-.016.053-.018.09.035.071.037.07.053.037.071Z" transform="translate(-458.241 -146.384)" fill="#fff" fill-rule="evenodd"/>
  <path id="details_find_file-2" data-name="details_find_file" d="M471.309,151.019l-3.987,4.037-.068.068-.083.05-.1.017-.1.016-.084-.016-.118-.035-.118-.084-.1-.085-.068-.134-.017-.153v-2.519h-.4l-.3.017h-.3l-.27.033-.271.017-.252.033-.27.035-.219.068-.221.05-.2.084-.2.068-.169.083-.169.1-.169.083-.136.118-.136.118-.1.118-.118.151-.1.153-.083.169-.085.169-.083.184-.052.219-.066.2-.017.237-.033.235-.017.237-.017.271v.572l.035.3.016.3.035.32v.1l-.017.068-.05.068-.085.033-.068.017h-.083l-.05-.017-.05-.033-.05-.035-.153-.252-.05-.085-.068-.118-.1-.151-.084-.2-.219-.388-.169-.39-.085-.184-.068-.219-.068-.254-.084-.237-.068-.252-.033-.254-.035-.237v-.59l.017-.355.051-.337.068-.371.05-.186.05-.169.118-.337.068-.169.1-.151.2-.322.117-.151.118-.169.153-.136.134-.134.169-.118.169-.136.186-.118.219-.1.219-.118.237-.084.237-.1.27-.083.27-.085.3-.05.32-.05.355-.05.355-.05.371-.017.388-.016.405-.017h.4v-2.5l.017-.151.068-.134.1-.1.118-.084.118-.035.084-.016.085.016.1.035.085.05.084.068,3.987,4.02.068.085.05.083.017.085.017.1-.017.1-.017.085-.05.084Z" transform="translate(-457.955 -146.12)" fill="#fff" fill-rule="evenodd"/>
</svg>
